<svg version="1.1" fill="white" xmlns="http://www.w3.org/2000/svg" xmlns:xlink="http://www.w3.org/1999/xlink" x="0px" y="0px" viewBox="0 0 1000 1000" enable-background="new 0 0 1000 1000" xml:space="preserve">
<g><path d="M819,316.2v551.3c0,67.7-51.9,122.5-116,122.5H297c-64,0-116-54.9-116-122.5V316.2c-32.1,0-58-27.4-58-61.2v-61.3c0-33.8,26-61.3,58-61.3h174V71.2c0-33.8,26-61.2,58-61.2h174c32,0,58,27.4,58,61.2v61.2h174c32,0,58,27.4,58,61.3V255C877,288.8,851,316.2,819,316.2z M239.1,867.5c0,33.8,26,61.2,58,61.2H703c32.1,0,58-27.4,58-61.2V316.2c-32.6,0-26,0-58,0H297c-32,0-18.1,0-58,0L239.1,867.5L239.1,867.5z M587,101.9c0-16.9-13-30.6-29-30.6H442c-16,0-29,13.7-29,30.6v30.6c18.5,0,22.7,0,23.4,0c0,0,0.3,0,0.3,0c0.5,0,1.7,0,5.2,0h116c16,0,0.9,0,29,0L587,101.9L587,101.9z M790,193.7H210.1c-16,0-29,13.7-29,30.6c0,16.9,13,30.6,29,30.6H790c16,0,29-13.7,29-30.6C819,207.4,806,193.7,790,193.7z M355,438.7c16,0,29,13.7,29,30.6v367.5c0,16.9-13,30.6-29,30.6c-16,0-29-13.7-29-30.6V469.3C326.1,452.4,339,438.7,355,438.7z M500,438.7c16,0,29,13.7,29,30.6v367.5c0,16.9-13,30.6-29,30.6c-16,0-29-13.7-29-30.6V469.3C471,452.4,484,438.7,500,438.7z M645,438.7c16,0,29,13.7,29,30.6v367.5c0,16.9-13,30.6-29,30.6c-16,0-29-13.7-29-30.6V469.3C616,452.4,629,438.7,645,438.7z"/></g>
</svg>
