
<svg version="1.1" xmlns="http://www.w3.org/2000/svg" xmlns:xlink="http://www.w3.org/1999/xlink" fill="#b9bdce" x="0px" y="0px" viewBox="0 0 1000 1000" enable-background="new 0 0 1000 1000" xml:space="preserve">
<g><path d="M908.3,101.9H775.6V40.6c0-16.9-13.7-30.6-30.6-30.6c-16.9,0-30.6,13.7-30.6,30.6v61.3H530.6V40.6c0-16.9-13.7-30.6-30.6-30.6c-16.9,0-30.6,13.7-30.6,30.6v61.3H285.6V40.6c0-16.9-13.7-30.6-30.6-30.6s-30.6,13.7-30.6,30.6v61.3H91.7c-45.1,0-81.7,36.5-81.7,81.6v724.8c0,45.1,36.6,81.7,81.7,81.7h816.7c45.1,0,81.7-36.6,81.7-81.7V183.5C990,138.4,953.4,101.9,908.3,101.9z M928.8,908.3c0,11.3-9.2,20.4-20.4,20.4H91.7c-11.3,0-20.4-9.2-20.4-20.4V183.5c0-11.2,9.2-20.4,20.4-20.4h132.7v61.3c0,16.9,13.7,30.6,30.6,30.6s30.6-13.7,30.6-30.6v-61.3h183.8v61.3c0,16.9,13.7,30.6,30.6,30.6c16.9,0,30.6-13.7,30.6-30.6v-61.3h183.8v61.3c0,16.9,13.7,30.6,30.6,30.6c16.9,0,30.6-13.7,30.6-30.6v-61.3h132.7c11.3,0,20.4,9.1,20.4,20.4V908.3z M224.4,469.4h122.5v-91.9H224.4V469.4z M224.4,622.5h122.5v-91.9H224.4V622.5z M224.4,775.6h122.5v-91.9H224.4V775.6z M438.8,775.6h122.5v-91.9H438.8V775.6z M438.8,622.5h122.5v-91.9H438.8V622.5z M438.8,469.4h122.5v-91.9H438.8V469.4z M653.1,775.6h122.5v-91.9H653.1V775.6z M653.1,622.5h122.5v-91.9H653.1V622.5z M653.1,469.4h122.5v-91.9H653.1V469.4z"/></g>
</svg>
