
<svg version="1.1" fill="#b9bdce" xmlns="http://www.w3.org/2000/svg" xmlns:xlink="http://www.w3.org/1999/xlink" x="0px" y="0px" viewBox="0 0 1000 1000" enable-background="new 0 0 1000 1000" xml:space="preserve">
<g><g><g><path d="M924.3,254C880.5,179,821,119.5,746,75.7C670.9,31.9,588.9,10,500,10c-88.9,0-170.9,21.9-246,65.7C179,119.5,119.5,179,75.7,254C31.9,329.1,10,411.1,10,500c0,88.9,21.9,170.9,65.7,246C119.5,821,179,880.5,254,924.3c75.1,43.8,157.1,65.7,246,65.7s170.9-21.9,246-65.7C821,880.5,880.5,821,924.3,746c43.8-75.1,65.7-157.1,65.7-246C990,411.1,968.1,329.1,924.3,254z M800.5,674.2c-31.1,53.2-73.2,95.3-126.3,126.3C621,831.6,563,847.1,500,847.1c-62.9,0-121-15.5-174.2-46.6c-53.2-31.1-95.3-73.2-126.3-126.3C168.4,621,152.9,562.9,152.9,500c0-63,15.5-121,46.6-174.2c31-53.2,73.2-95.3,126.3-126.3c53.2-31.1,111.2-46.6,174.2-46.6c63,0,121,15.5,174.2,46.6c53.2,31,95.3,73.2,126.3,126.3C831.6,379,847.1,437,847.1,500C847.1,562.9,831.6,621,800.5,674.2z"/><path d="M561.3,255h-40.8c-6,0-10.8,1.9-14.7,5.7c-3.8,3.8-5.7,8.7-5.7,14.7V500H357.1c-6,0-10.8,1.9-14.7,5.7c-3.8,3.8-5.7,8.7-5.7,14.7v40.8c0,6,1.9,10.9,5.7,14.7c3.8,3.8,8.7,5.7,14.7,5.7h204.2c5.9,0,10.8-1.9,14.7-5.7c3.8-3.8,5.7-8.7,5.7-14.7V275.4c0-6-1.9-10.8-5.7-14.7C572.1,256.9,567.2,255,561.3,255z"/></g></g><g></g><g></g><g></g><g></g><g></g><g></g><g></g><g></g><g></g><g></g><g></g><g></g><g></g><g></g><g></g></g>
</svg>
